Coordinates
version=1
nRows=8
nColumns=36
inDegrees=yes

Units are S.I. units (second, meters, Newtons, ...)
If the header above contains a line with 'inDegrees', this indicates whether rotational values are in degrees (yes) or radians (no).

endheader
time	pelvis_tilt	pelvis_list	pelvis_rotation	pelvis_tx	pelvis_ty	pelvis_tz	hip_flexion_r	hip_adduction_r	hip_rotation_r	knee_angle_r	knee_angle_r_beta	ankle_angle_r	subtalar_angle_r	mtp_angle_r	hip_flexion_l	hip_adduction_l	hip_rotation_l	knee_angle_l	knee_angle_l_beta	ankle_angle_l	subtalar_angle_l	mtp_angle_l	lumbar_extension	lumbar_bending	lumbar_rotation	arm_flex_r	arm_add_r	arm_rot_r	elbow_flex_r	pro_sup_r	arm_flex_l	arm_add_l	arm_rot_l	elbow_flex_l	pro_sup_l
      2.40000000	     -4.59270415	      2.09526972	      4.92225709	     -0.37888159	      1.27009644	     -0.04278248	     -1.71418565	     -2.09697471	     12.53197074	      0.21541655	      0.00375973	     17.64465338	      3.40737070	     -7.49999987	     -0.18002729	      1.16202928	     -5.17637658	      0.93629627	      0.01634145	     13.37707755	     10.43604690	     -7.49999987	      9.56326208	     -0.92695516	     -1.24682448	     -4.17679840	     -6.49649643	     13.18422998	     27.34630488	     68.73886953	     -1.83155243	     -8.85026988	     19.74523877	     25.81966216	     73.26321150
      2.41666670	     -4.59852168	      2.08427808	      4.87347766	     -0.37919873	      1.26700392	     -0.04290475	     -1.64016503	     -2.10453530	     12.64532324	      0.21238461	      0.00370681	     17.68076003	      3.34523437	     -7.49999987	     -0.31605735	      1.10508148	     -4.86735605	      0.97302955	      0.01698257	     13.36884079	      9.79482121	     -7.49999987	      9.59708214	     -0.88894848	     -1.24293905	     -4.30219164	     -6.51949562	     13.06205276	     27.53012699	     68.16449231	     -1.93464917	     -8.77371174	     19.68786055	     25.92677425	     72.41518756
      2.43333330	     -4.77595421	      2.02587725	      4.87055760	     -0.37863976	      1.26935554	     -0.04255012	     -1.37249197	     -2.03719641	     12.83844296	      0.21013964	      0.00366763	     17.69256593	      3.16238480	     -7.49999987	     -0.27441241	      0.94098368	     -4.99561434	      1.06841155	      0.01864730	     13.51282773	      9.91113977	     -7.49999987	      9.81030594	     -0.84815832	     -1.20309201	     -4.29639865	     -6.47412599	     13.10815539	     27.30049404	     67.99127379	     -1.88240223	     -8.73681618	     19.81095001	     25.66536207	     72.11033011
      2.45000000	     -4.92795223	      1.98349901	      4.84652142	     -0.37817132	      1.26914909	     -0.04277437	     -1.13116721	     -1.98166819	     12.85511831	      0.20660607	      0.00360596	     17.86093606	      3.27977163	     -7.49999987	     -0.19516492	      0.85151683	     -5.02851402	      1.13788240	      0.01985979	     13.44698498	      9.61753785	     -7.49999987	      9.97149771	     -0.85293663	     -1.27222238	     -4.31726751	     -6.43870195	     13.13646476	     27.26008597	     67.99204104	     -1.94860336	     -8.75390999	     19.95081796	     25.52623530	     72.07732091
      2.46666670	     -5.05979078	      1.95872659	      4.85627745	     -0.37858406	      1.26603548	     -0.04253867	     -0.89071389	     -1.92116345	     13.09646401	      0.20416686	      0.00356338	     17.96021062	      3.14364415	     -7.49999987	     -0.08010712	      0.78305404	     -5.28358082	      1.27359985	      0.02222851	     13.51407372	      9.46082524	     -7.49999987	     10.18940198	     -0.89767954	     -1.20738800	     -4.32051666	     -6.48427796	     13.54239820	     27.07136707	     69.92613755	     -1.80210872	     -8.89606467	     20.76391899	     25.24288064	     74.67364535
      2.48333330	     -5.01065660	      1.90512321	      5.02834453	     -0.37110473	      1.26566173	     -0.04034580	     -1.05086710	     -1.77402180	     13.16621135	      0.19550339	      0.00341218	     18.05933107	      3.16577992	     -7.49999987	     -0.15899150	      0.61881358	     -5.47380003	      1.37272263	      0.02395853	     13.41782346	      9.32809700	     -7.49999987	     10.21987177	     -0.97305314	     -1.29576660	     -4.52955826	     -6.37216870	     13.53015481	     27.03846109	     69.93903802	     -1.88921635	     -8.94706525	     20.73432844	     25.20357985	     74.69118347
      2.50000000	     -4.94256053	      1.84803140	      5.14995402	     -0.37157643	      1.26579839	     -0.04028721	     -1.22727519	     -1.64685238	     13.16449324	      0.19205140	      0.00335193	     18.29633659	      3.37705648	     -7.49999987	     -0.21591097	      0.49108853	     -5.74818189	      1.40379709	      0.02450088	     13.27199564	      9.02848661	     -7.49999987	     10.25025468	     -0.95497949	     -1.26921682	     -4.75630191	     -6.23406364	     12.88542517	     27.17873928	     69.23342804	     -2.12013225	     -8.85642543	     20.16265628	     25.34335219	     73.66975127
      2.51666670	     -4.82806478	      1.80704448	      5.40371867	     -0.37095227	      1.27246528	     -0.04069616	     -1.47977565	     -1.53347133	     13.05426222	      0.18449368	      0.00322002	     18.28338057	      3.47683929	     -7.49999987	     -0.34786522	      0.34683295	     -6.14777756	      1.38645120	      0.02419814	     12.81667683	      8.79793760	     -7.49999987	     10.30035833	     -0.98548650	     -1.29416110	     -4.98457654	     -6.12785532	     12.64531185	     27.13831403	     69.18794499	     -2.22257680	     -8.84543068	     19.98282380	     25.31681269	     73.58807034
